<svg width="36" height="36" viewBox="0 0 36 36" fill="none" xmlns="http://www.w3.org/2000/svg">
<g clip-path="url(#clip0_92_208)">
<circle cx="18" cy="18" r="18" fill="url(#paint0_linear_92_208)"/>
<g clip-path="url(#clip1_92_208)">
<path d="M20.1869 21.6633C20.1529 21.3568 20.0507 21.1353 19.8463 20.9309C19.463 20.5307 18.7902 20.2667 17.9982 20.2667C17.2062 20.2667 16.5334 20.5222 16.1502 20.9309C15.9543 21.1438 15.8436 21.3568 15.8095 21.6633C15.7414 22.2595 15.784 22.7705 15.8521 23.5966C15.9202 24.3801 16.048 25.4276 16.2098 26.4836C16.329 27.2415 16.4227 27.6503 16.5079 27.9399C16.6526 28.4168 17.1721 28.8256 17.9982 28.8256C18.8243 28.8256 19.3523 28.4083 19.4886 27.9399C19.5737 27.6503 19.6674 27.2415 19.7867 26.4836C19.9485 25.4191 20.0762 24.3801 20.1443 23.5966C20.221 22.7705 20.2551 22.2595 20.1869 21.6633Z" fill="white"/>
<path d="M20.0932 17.3201C20.0932 18.4783 19.1564 19.4151 17.9982 19.4151C16.84 19.4151 15.9032 18.4783 15.9032 17.3201C15.9032 16.1618 16.84 15.225 17.9982 15.225C19.1564 15.225 20.0932 16.1704 20.0932 17.3201Z" fill="white"/>
<path d="M17.9726 9.0677C13.0843 9.08473 9.08159 13.0533 9.01346 17.9417C8.96236 21.9018 11.4917 25.2913 15.026 26.5347C15.1112 26.5688 15.1963 26.4921 15.1878 26.407C15.1452 26.1004 15.0941 25.7938 15.0601 25.4872C15.043 25.3765 14.9749 25.2913 14.8812 25.2402C12.0879 24.0224 10.1376 21.2205 10.1717 17.9758C10.2143 13.7176 13.6889 10.2515 17.9386 10.2174C22.2904 10.1833 25.8417 13.7091 25.8417 18.0524C25.8417 21.2631 23.9 24.0224 21.1322 25.2402C21.03 25.2828 20.9619 25.3765 20.9534 25.4872C20.9108 25.7938 20.8682 26.1004 20.8256 26.407C20.8086 26.5007 20.9023 26.5688 20.9874 26.5347C24.4877 25.3084 27 21.97 27 18.0524C26.9829 13.0959 22.9377 9.05919 17.9726 9.0677Z" fill="white"/>
<path d="M17.7683 12.0484C14.5832 12.1677 12.0283 14.7992 11.9857 17.9843C11.9601 20.0793 13.0076 21.9359 14.6172 23.0345C14.6939 23.0856 14.8046 23.026 14.8046 22.9323C14.779 22.5661 14.779 22.2425 14.7961 21.9018C14.8046 21.7911 14.762 21.6889 14.6769 21.6123C13.6975 20.6925 13.1013 19.381 13.1354 17.9332C13.2035 15.3783 15.256 13.3003 17.8109 13.1981C20.5872 13.0874 22.8696 15.3187 22.8696 18.061C22.8696 19.4577 22.2734 20.7181 21.3281 21.6123C21.2515 21.6889 21.2089 21.7911 21.2089 21.9018C21.2259 22.234 21.2174 22.5576 21.2004 22.9238C21.1919 23.0175 21.3026 23.0856 21.3877 23.026C22.9718 21.9444 24.0193 20.1134 24.0193 18.0525C24.0278 14.6629 21.1919 11.9122 17.7683 12.0484Z" fill="white"/>
</g>
</g>
<defs>
<linearGradient id="paint0_linear_92_208" x1="18" y1="0" x2="18" y2="36" gradientUnits="userSpaceOnUse">
<stop stop-color="#CC44E9"/>
<stop offset="1" stop-color="#7C38B8"/>
</linearGradient>
<clipPath id="clip0_92_208">
<rect width="36" height="36" fill="white"/>
</clipPath>
<clipPath id="clip1_92_208">
<rect width="17.9873" height="19.7579" fill="white" transform="translate(9.0127 9.06769)"/>
</clipPath>
</defs>
</svg>
