<svg width="37" height="37" viewBox="0 0 37 37" fill="none" xmlns="http://www.w3.org/2000/svg">
<path d="M18 0C28 0 36 8.1 36 18C36 28 27.9 36 18 36C8 36 0 27.9 0 18C0 8.1 8.1 0 18 0Z" fill="#8C9EFF"/>
<path d="M27.4413 10.376C27.4413 10.376 24.7356 8.24495 21.5344 8L21.25 8.57972C24.1425 9.29007 25.4669 10.3107 26.8562 11.5599C24.4675 10.3352 22.1031 9.18393 17.9919 9.18393C13.8806 9.18393 11.5162 10.3352 9.1275 11.5599C10.5169 10.3107 12.0931 9.17576 14.7337 8.57972L14.4494 8C11.0938 8.31844 8.5425 10.376 8.5425 10.376C8.5425 10.376 5.52 14.7851 5 23.4401C8.04687 26.9755 12.6781 27 12.6781 27L13.645 25.7018C12.0038 25.1302 10.1431 24.1014 8.5425 22.248C10.4519 23.7013 13.3444 25.22 18 25.22C22.6556 25.22 25.54 23.7095 27.4575 22.248C25.8569 24.1014 23.9962 25.1302 22.355 25.7018L23.3219 27C23.3219 27 27.9531 26.9755 31 23.4401C30.4637 14.7851 27.4413 10.376 27.4413 10.376ZM14.1406 21.064C12.995 21.064 12.0687 20.0026 12.0687 18.688C12.0687 17.3734 12.995 16.312 14.1406 16.312C15.2862 16.312 16.2125 17.3734 16.2125 18.688C16.2125 20.0026 15.2862 21.064 14.1406 21.064ZM21.8269 21.064C20.6812 21.064 19.755 20.0026 19.755 18.688C19.755 17.3734 20.6812 16.312 21.8269 16.312C22.9725 16.312 23.8987 17.3734 23.8987 18.688C23.8987 20.0026 22.9644 21.064 21.8269 21.064Z" fill="white"/>
</svg>
