<svg width="37" height="37" viewBox="0 0 37 37" fill="none" xmlns="http://www.w3.org/2000/svg">
<path d="M18 0C28 0 36 8.1 36 18C36 28 27.9 36 18 36C8 36 0 27.9 0 18C0 8.1 8.1 0 18 0Z" fill="#CD3C33"/>
<path d="M7 14.2275L17.8692 19.8805C17.9783 19.9371 18.0993 19.9667 18.2222 19.9667C18.3451 19.9667 18.4662 19.9371 18.5752 19.8805L29.4444 14.2285V24.048C29.4445 24.8949 29.1205 25.7097 28.5388 26.3253C27.9572 26.9409 27.1621 27.3106 26.3165 27.3585L26.1288 27.3636H10.3157C9.46875 27.3637 8.65392 27.0397 8.03833 26.458C7.42274 25.8764 7.05305 25.0812 7.0051 24.2357L7 24.048V14.2275ZM10.3157 9H26.1288C26.9757 8.99994 27.7905 9.32397 28.4061 9.9056C29.0217 10.4872 29.3914 11.2824 29.4393 12.1279L29.4444 12.3157V12.5034L18.2222 18.3389L7 12.5034V12.3157C6.99994 11.4687 7.32397 10.6539 7.9056 10.0383C8.48724 9.42274 9.28239 9.05305 10.1279 9.0051L10.3157 9H26.1288H10.3157Z" fill="white"/>
</svg>
