<svg width="36" height="36" viewBox="0 0 36 36" fill="none" xmlns="http://www.w3.org/2000/svg">
<g clip-path="url(#clip0_92_311)">
<path d="M18 36C27.9411 36 36 27.9411 36 18C36 8.05887 27.9411 0 18 0C8.05887 0 0 8.05887 0 18C0 27.9411 8.05887 36 18 36Z" fill="#F3F4F7"/>
<g clip-path="url(#clip1_92_311)">
<path d="M15.03 35.82C6.48 34.29 0 26.91 0 18C0 8.1 8.1 0 18 0C27.9 0 36 8.1 36 18C36 26.91 29.52 34.29 20.97 35.82L19.98 35.01H16.02L15.03 35.82Z" fill="#2769F6"/>
<path d="M25.02 23.04L25.83 18H21.06V14.49C21.06 13.05 21.6 11.97 23.76 11.97H26.1V7.38002C24.84 7.20002 23.4 7.02002 22.14 7.02002C18 7.02002 15.12 9.54002 15.12 14.04V18H10.62V23.04H15.12V35.73C16.11 35.91 17.1 36 18.09 36C19.08 36 20.07 35.91 21.06 35.73V23.04H25.02Z" fill="white"/>
</g>
</g>
<defs>
<clipPath id="clip0_92_311">
<rect width="36" height="36" fill="white"/>
</clipPath>
<clipPath id="clip1_92_311">
<rect width="36" height="36" fill="white"/>
</clipPath>
</defs>
</svg>
