<svg xmlns="http://www.w3.org/2000/svg" xmlns:xlink="http://www.w3.org/1999/xlink" width="36" height="36" viewBox="0 0 36 36">
  <defs>
    <linearGradient id="linear-gradient" x1="0.146" y1="0.854" x2="0.854" y2="0.146" gradientUnits="objectBoundingBox">
      <stop offset="0" stop-color="#ffd521"/>
      <stop offset="0.055" stop-color="#ffd020"/>
      <stop offset="0.124" stop-color="#fec01e"/>
      <stop offset="0.2" stop-color="#fca71b"/>
      <stop offset="0.282" stop-color="#fa8316"/>
      <stop offset="0.368" stop-color="#f85510"/>
      <stop offset="0.456" stop-color="#f51e09"/>
      <stop offset="0.5" stop-color="#f30005"/>
      <stop offset="0.503" stop-color="#f20007"/>
      <stop offset="0.597" stop-color="#e1003b"/>
      <stop offset="0.688" stop-color="#d30067"/>
      <stop offset="0.776" stop-color="#c70088"/>
      <stop offset="0.859" stop-color="#bf00a0"/>
      <stop offset="0.936" stop-color="#bb00af"/>
      <stop offset="1" stop-color="#b900b4"/>
    </linearGradient>
  </defs>
  <g id="Group_4" data-name="Group 4" transform="translate(-128.575 -541.575)">
    <g id="iconfinder_2018_social_media_popular_app_logo_instagram_3225191" transform="translate(128.575 541.575)">
      <path id="Path_1" data-name="Path 1" d="M18,36h0A18,18,0,0,1,0,18H0A18,18,0,0,1,18,0h0A18,18,0,0,1,36,18h0A18,18,0,0,1,18,36Z" fill="url(#linear-gradient)"/>
      <g id="Group_1" data-name="Group 1" transform="translate(5.652 5.656)">
        <path id="Path_2" data-name="Path 2" d="M170.948,160.924c3.295,0,3.686.011,4.988.072a6.774,6.774,0,0,1,2.293.427,4.083,4.083,0,0,1,2.34,2.34,6.867,6.867,0,0,1,.427,2.293c.058,1.3.072,1.693.072,4.988s-.011,3.686-.072,4.988a6.774,6.774,0,0,1-.427,2.293,4.083,4.083,0,0,1-2.34,2.34,6.866,6.866,0,0,1-2.293.427c-1.3.058-1.693.072-4.988.072s-3.686-.011-4.988-.072a6.773,6.773,0,0,1-2.293-.427,4.082,4.082,0,0,1-2.34-2.34,6.866,6.866,0,0,1-.427-2.293c-.058-1.3-.072-1.693-.072-4.988s.011-3.686.072-4.988a6.773,6.773,0,0,1,.427-2.293,4.082,4.082,0,0,1,2.34-2.34A6.867,6.867,0,0,1,165.96,161c1.3-.061,1.693-.072,4.988-.072m0-2.224c-3.353,0-3.772.014-5.089.076a9.074,9.074,0,0,0-3,.575,5.959,5.959,0,0,0-2.185,1.421,6.076,6.076,0,0,0-1.425,2.188,9.128,9.128,0,0,0-.575,3c-.061,1.317-.076,1.736-.076,5.089s.014,3.772.076,5.089a9.074,9.074,0,0,0,.575,3,6.334,6.334,0,0,0,3.613,3.606,9.128,9.128,0,0,0,3,.575c1.317.061,1.736.076,5.089.076s3.772-.014,5.089-.076a9.074,9.074,0,0,0,3-.575,6.334,6.334,0,0,0,3.606-3.613,9.128,9.128,0,0,0,.575-3c.061-1.317.076-1.736.076-5.089s-.014-3.772-.076-5.089a9.074,9.074,0,0,0-.575-3,6.334,6.334,0,0,0-3.613-3.606,9.128,9.128,0,0,0-3-.575c-1.313-.058-1.732-.072-5.085-.072Z" transform="translate(-158.6 -158.7)" fill="#fff"/>
        <path id="Path_3" data-name="Path 3" d="M331.04,324.7a6.34,6.34,0,1,0,6.34,6.34A6.341,6.341,0,0,0,331.04,324.7Zm0,10.456a4.116,4.116,0,1,1,4.116-4.116A4.116,4.116,0,0,1,331.04,335.156Z" transform="translate(-318.692 -318.696)" fill="#fff"/>
        <circle id="Ellipse_1" data-name="Ellipse 1" cx="1.483" cy="1.483" r="1.483" transform="translate(17.455 4.272)" fill="#fff"/>
      </g>
    </g>
  </g>
</svg>
