<svg width="36" height="36" viewBox="0 0 36 36" fill="none" xmlns="http://www.w3.org/2000/svg">
<g clip-path="url(#clip0_92_333)">
<path d="M18 36C27.9411 36 36 27.9411 36 18C36 8.05887 27.9411 0 18 0C8.05887 0 0 8.05887 0 18C0 27.9411 8.05887 36 18 36Z" fill="#2A67BC"/>
<g clip-path="url(#clip1_92_333)">
<path fill-rule="evenodd" clip-rule="evenodd" d="M11 27H25C26.1046 27 27 26.1046 27 25V11C27 9.89543 26.1046 9 25 9H11C9.89543 9 9 9.89543 9 11V25C9 26.1046 9.89543 27 11 27Z" fill="white"/>
<path fill-rule="evenodd" clip-rule="evenodd" d="M24.5 24.5H21.8289V19.9505C21.8289 18.7032 21.3549 18.0061 20.3677 18.0061C19.2937 18.0061 18.7325 18.7315 18.7325 19.9505V24.5H16.1583V15.8333H18.7325V17.0007C18.7325 17.0007 19.5065 15.5686 21.3456 15.5686C23.1839 15.5686 24.5 16.6911 24.5 19.0128V24.5ZM13.0873 14.6985C12.2105 14.6985 11.5 13.9824 11.5 13.0993C11.5 12.2161 12.2105 11.5 13.0873 11.5C13.9642 11.5 14.6743 12.2161 14.6743 13.0993C14.6743 13.9824 13.9642 14.6985 13.0873 14.6985ZM11.7581 24.5H14.4424V15.8333H11.7581V24.5Z" fill="#2A67BC"/>
</g>
</g>
<defs>
<clipPath id="clip0_92_333">
<rect width="36" height="36" fill="white"/>
</clipPath>
<clipPath id="clip1_92_333">
<rect width="18" height="18" fill="white" transform="translate(9 9)"/>
</clipPath>
</defs>
</svg>
