<?xml version="1.0" encoding="utf-8"?>
<!-- Generator: Adobe Illustrator 24.1.2, SVG Export Plug-In . SVG Version: 6.00 Build 0)  -->
<svg version="1.1" id="iconfinder_social-02_1591851"
	 xmlns="http://www.w3.org/2000/svg" xmlns:xlink="http://www.w3.org/1999/xlink" x="0px" y="0px" width="36.1px" height="36.1px"
	 viewBox="0 0 36.1 36.1" style="enable-background:new 0 0 36.1 36.1;" xml:space="preserve">
<style type="text/css">
	.st0{fill:#F7EC1E;}
	.st1{fill:#FFFFFF;}
</style>
<g>
	<circle class="st0" cx="18" cy="18" r="18"/>
	<g>
		<g>
			<g>
				<path class="st1" d="M29.7,24c-0.1-0.3-0.6-0.6-0.6-0.6l0,0c0,0-0.1,0-0.1-0.1c-0.8-0.4-1.5-0.9-2.1-1.4
					c-0.5-0.4-0.9-0.9-1.2-1.4c-0.4-0.6-0.6-1.1-0.7-1.4c0-0.2,0-0.3,0-0.3c0-0.1,0.1-0.2,0.2-0.2c0.3-0.2,0.7-0.5,1-0.7
					c0.2-0.2,0.4-0.3,0.6-0.4c0.4-0.3,0.6-0.5,0.8-0.8c0.2-0.4,0.2-0.8,0.1-1.2c-0.2-0.6-0.7-0.9-1.4-0.9c-0.1,0-0.3,0-0.4,0
					c-0.4,0.1-0.7,0.2-1,0.3c0,0,0,0,0,0c0-0.7,0.1-1.7,0-2.7c-0.1-0.9-0.2-1.6-0.5-2.2c-0.3-0.6-0.7-1.1-1-1.4
					c-0.3-0.3-0.8-0.8-1.5-1.2c-1-0.6-2.2-0.9-3.5-0.9c-1.3,0-2.5,0.3-3.5,0.9c-0.8,0.4-1.3,1-1.5,1.2c-0.3,0.3-0.7,0.8-1,1.4
					c-0.3,0.6-0.5,1.3-0.5,2.2c-0.1,0.9,0,1.9,0,2.7c0,0,0,0,0,0c-0.3-0.1-0.7-0.2-1-0.3c-0.1,0-0.3,0-0.4,0c-0.7,0-1.2,0.3-1.4,0.9
					c-0.2,0.4-0.1,0.8,0.1,1.2c0.2,0.3,0.4,0.6,0.8,0.8c0.1,0.1,0.3,0.2,0.6,0.4c0.3,0.2,0.7,0.5,1,0.6c0,0,0.2,0.1,0.2,0.2
					c0,0.1,0,0.2,0,0.4c-0.1,0.3-0.3,0.8-0.7,1.4c-0.3,0.5-0.8,1-1.2,1.4c-0.6,0.5-1.3,1-2.1,1.4c0,0-0.1,0-0.1,0.1l0,0
					c0,0-0.5,0.2-0.6,0.6c-0.1,0.5,0.2,0.9,0.6,1.2c0.6,0.4,1.3,0.6,1.8,0.7c0.1,0,0.2,0.1,0.3,0.1c0.1,0,0.2,0.1,0.3,0.2
					c0.1,0.1,0.1,0.2,0.1,0.4l0,0c0,0.2,0.2,0.6,0.5,0.8c0.3,0.2,0.8,0.2,1.3,0.3c0.6,0,1.3,0,2.1,0.3c0.4,0.1,0.7,0.3,1.1,0.6
					c0.8,0.5,1.8,1.1,3.6,1.1c1.8,0,2.8-0.6,3.6-1.1c0.4-0.2,0.7-0.4,1.1-0.6c0.8-0.3,1.5-0.3,2.1-0.3c0.5,0,1,0,1.3-0.3
					c0.3-0.2,0.4-0.6,0.5-0.8c0-0.1,0-0.2,0.1-0.3c0.1-0.1,0.2-0.1,0.3-0.2c0.1,0,0.2-0.1,0.3-0.1c0.4-0.1,1-0.2,1.6-0.6
					C29.7,24.8,29.8,24.2,29.7,24z"/>
			</g>
			<path d="M30.4,23.7c-0.2-0.5-0.5-0.7-0.9-0.9c-0.1,0-0.1-0.1-0.2-0.1c-0.1-0.1-0.2-0.1-0.3-0.2c-1.2-0.6-2.1-1.4-2.7-2.3
				c-0.2-0.3-0.4-0.6-0.5-0.8c-0.1-0.2-0.1-0.2,0-0.3c0-0.1,0.1-0.1,0.2-0.2c0.2-0.1,0.4-0.3,0.5-0.4c0.2-0.2,0.4-0.3,0.6-0.4
				c0.5-0.3,0.8-0.7,1-1.1c0.3-0.6,0.3-1.2,0.1-1.8c-0.3-0.8-1.1-1.4-2.1-1.4c-0.2,0-0.4,0-0.6,0.1c-0.1,0-0.1,0-0.2,0
				c0-0.6,0-1.2-0.1-1.8c-0.2-2.1-0.9-3.2-1.7-4c-0.3-0.4-0.9-0.9-1.7-1.4c-1.2-0.7-2.5-1-3.9-1c-1.4,0-2.7,0.3-3.9,1
				c-0.8,0.5-1.4,1-1.7,1.4c-0.8,0.9-1.5,2-1.7,4c-0.1,0.6-0.1,1.2-0.1,1.8c-0.1,0-0.1,0-0.2,0c-0.2,0-0.4-0.1-0.6-0.1
				c-1,0-1.7,0.5-2.1,1.4c-0.2,0.6-0.2,1.2,0.1,1.8c0.2,0.4,0.5,0.8,1,1.1c0.1,0.1,0.3,0.2,0.6,0.4c0.1,0.1,0.3,0.2,0.5,0.3
				c0,0,0.1,0.1,0.2,0.2c0,0.1,0,0.2,0,0.3c-0.1,0.2-0.2,0.5-0.5,0.8c-0.6,0.9-1.5,1.7-2.6,2.3C6.6,22.8,6,23,5.7,23.7
				c-0.2,0.5-0.1,1.2,0.4,1.7l0,0c0.2,0.2,0.4,0.3,0.6,0.5c0.6,0.3,1.1,0.5,1.6,0.6c0.1,0,0.2,0.1,0.3,0.1c0.2,0.2,0.2,0.4,0.4,0.8
				c0.1,0.2,0.3,0.4,0.5,0.5c0.5,0.4,1.1,0.4,1.7,0.4c0.6,0,1.2,0,1.9,0.3c0.3,0.1,0.6,0.3,1,0.5c0.9,0.5,2,1.2,4,1.2
				c2,0,3.1-0.7,4-1.2c0.4-0.2,0.7-0.4,0.9-0.5c0.7-0.2,1.3-0.3,1.9-0.3c0.6,0,1.2,0,1.7-0.4c0.2-0.1,0.4-0.3,0.5-0.6
				c0.2-0.3,0.2-0.5,0.3-0.7c0.1-0.1,0.2-0.1,0.3-0.1c0.4-0.1,0.9-0.3,1.6-0.6c0.3-0.2,0.5-0.3,0.7-0.5c0,0,0,0,0,0
				C30.4,24.8,30.6,24.2,30.4,23.7z M28.6,24.6c-1.1,0.6-1.8,0.5-2.3,0.9c-0.5,0.3-0.2,0.9-0.5,1.2c-0.4,0.3-1.6,0-3.2,0.5
				c-1.3,0.4-2.1,1.7-4.5,1.7c-2.4,0-3.2-1.2-4.5-1.7c-1.6-0.5-2.8-0.2-3.2-0.5c-0.3-0.2-0.1-0.9-0.5-1.2c-0.5-0.4-1.3-0.3-2.3-0.9
				c-0.7-0.4-0.3-0.6-0.1-0.7c3.8-1.9,4.5-4.7,4.5-4.9c0-0.3,0.1-0.5-0.2-0.7c-0.3-0.3-1.5-1-1.8-1.2c-0.6-0.4-0.8-0.8-0.6-1.3
				c0.1-0.3,0.4-0.5,0.8-0.5c0.1,0,0.2,0,0.3,0c0.6,0.1,1.2,0.4,1.6,0.5c0,0,0.1,0,0.1,0c0.2,0,0.2-0.1,0.2-0.3c0-0.7-0.1-2,0-3.2
				c0.1-1.7,0.7-2.5,1.3-3.3c0.3-0.4,1.8-1.9,4.5-1.9c2.8,0,4.2,1.5,4.5,1.9c0.6,0.7,1.2,1.6,1.3,3.3c0.1,1.2,0,2.5,0,3.2
				c0,0.2,0.1,0.3,0.2,0.3c0,0,0.1,0,0.1,0c0.3-0.1,0.9-0.4,1.6-0.5c0.1,0,0.2,0,0.3,0c0.3,0,0.6,0.1,0.8,0.5
				c0.2,0.5-0.1,0.9-0.6,1.3c-0.3,0.2-1.6,1-1.8,1.2c-0.3,0.3-0.2,0.5-0.2,0.7c0,0.2,0.6,3.1,4.5,4.9C28.9,24,29.3,24.3,28.6,24.6z"
				/>
		</g>
	</g>
</g>
</svg>
