<svg width="36" height="36" viewBox="0 0 36 36" fill="none" xmlns="http://www.w3.org/2000/svg">
<g clip-path="url(#clip0_92_128)">
<circle cx="18" cy="18" r="18" fill="black"/>
<path d="M18 7C11.9278 7 7 11.9278 7 18C7 24.0722 11.9278 29 18 29C24.0722 29 29 24.0722 29 18C29 11.9278 24.0722 7 18 7Z" fill="#1ED760"/>
<path d="M25.0347 16.8956C24.8041 16.8956 24.6621 16.8379 24.4625 16.7226C21.3045 14.8375 15.6581 14.3851 12.0032 15.4052C11.8436 15.4496 11.644 15.5206 11.4311 15.5206C10.8456 15.5206 10.3976 15.0637 10.3976 14.4738C10.3976 13.8706 10.7702 13.529 11.1694 13.4137C12.7307 12.9568 14.4782 12.7395 16.3811 12.7395C19.619 12.7395 23.0121 13.4137 25.4916 14.8597C25.8375 15.0593 26.0637 15.3343 26.0637 15.8621C26.0637 16.4653 25.5758 16.8956 25.0347 16.8956ZM23.6597 20.2754C23.4291 20.2754 23.2738 20.1734 23.1141 20.0891C20.342 18.448 16.2081 17.7871 12.5311 18.7851C12.3182 18.8427 12.2028 18.9004 12.0032 18.9004C11.5286 18.9004 11.1428 18.5145 11.1428 18.0399C11.1428 17.5653 11.3734 17.2504 11.8303 17.1218C13.0633 16.7758 14.323 16.5185 16.1682 16.5185C19.0468 16.5185 21.8278 17.2326 24.019 18.5367C24.3782 18.7496 24.5202 19.0246 24.5202 19.4105C24.5157 19.8895 24.1432 20.2754 23.6597 20.2754ZM22.4666 23.1851C22.2803 23.1851 22.1649 23.1274 21.992 23.0254C19.2242 21.3576 16.0041 21.2867 12.8238 21.9387C12.6508 21.983 12.4246 22.054 12.296 22.054C11.8657 22.054 11.5952 21.7125 11.5952 21.3532C11.5952 20.8964 11.8657 20.679 12.1984 20.608C15.8311 19.8052 19.5436 19.8762 22.7105 21.7701C22.9811 21.9431 23.1407 22.0984 23.1407 22.502C23.1407 22.9056 22.8258 23.1851 22.4666 23.1851Z" fill="black"/>
</g>
<defs>
<clipPath id="clip0_92_128">
<rect width="36" height="36" fill="white"/>
</clipPath>
</defs>
</svg>
