<svg xmlns="http://www.w3.org/2000/svg" width="36" height="36" viewBox="0 0 36 36">
  <g id="Group_10" data-name="Group 10" transform="translate(-68 -481)">
    <circle id="Ellipse_2" data-name="Ellipse 2" cx="18" cy="18" r="18" transform="translate(68 481)" fill="#fff"/>
    <g id="Layer_11" transform="translate(68.581 483.515)">
      <g id="Group_6" data-name="Group 6" transform="translate(8.416 3.745)">
        <g id="Group_5" data-name="Group 5">
          <path id="Path_9" data-name="Path 9" d="M32.25,19.234V23.4c-.224,0-.492.045-.761.045a8.3,8.3,0,0,1-5.324-1.969v8.859a7.989,7.989,0,0,1-14.765,4.3,7.99,7.99,0,0,0,5.459,2.192A7.839,7.839,0,0,0,23.212,33.6a8.139,8.139,0,0,0,1.611-4.832v-8.9a7.973,7.973,0,0,0,5.324,1.969,4.341,4.341,0,0,0,.761-.045V19.1a5.159,5.159,0,0,0,1.163.134h.179Z" transform="translate(-11.4 -13.194)" fill="#ff004f"/>
          <path id="Path_10" data-name="Path 10" d="M21.761,26.245v4.609a3.727,3.727,0,0,0-.984-.134A3.639,3.639,0,0,0,17.2,34.388a3.882,3.882,0,0,0,.224,1.253A3.727,3.727,0,0,1,15.9,32.688a3.639,3.639,0,0,1,3.579-3.669,3.489,3.489,0,0,1,.984.134V26.2h.268A7.584,7.584,0,0,1,21.761,26.245Z" transform="translate(-13.887 -17.117)" fill="#ff004f"/>
          <path id="Path_11" data-name="Path 11" d="M43.8,8.629A6.018,6.018,0,0,1,42.1,5.9h1.074v.626A7.107,7.107,0,0,0,43.8,8.629Z" transform="translate(-28.364 -5.9)" fill="#ff004f"/>
        </g>
      </g>
      <path id="Path_12" data-name="Path 12" d="M29.516,11.851v2.685a4.094,4.094,0,0,1-.761.045,8.3,8.3,0,0,1-5.324-1.969v8.859a7.944,7.944,0,0,1-13.423,5.861A8.116,8.116,0,0,1,8.8,23.081a8.006,8.006,0,0,1,7.741-8.009v2.953a3.727,3.727,0,0,0-.984-.134,3.639,3.639,0,0,0-3.579,3.669A3.544,3.544,0,0,0,13.5,24.513a3.563,3.563,0,0,0,6.935-1.253V5.9H23.7a5.791,5.791,0,0,0,1.7,2.729A6.138,6.138,0,0,0,29.516,11.851Z" transform="translate(-1.547 -2.155)"/>
      <g id="Group_9" data-name="Group 9" transform="translate(6 2)">
        <g id="Group_8" data-name="Group 8" transform="translate(0 0)">
          <g id="Group_7" data-name="Group 7">
            <path id="Path_13" data-name="Path 13" d="M14.993,22.689v1.521A8.006,8.006,0,0,0,7.253,32.22,8.116,8.116,0,0,0,8.461,36.47,8.1,8.1,0,0,1,6,30.609,7.992,7.992,0,0,1,13.964,22.6,7.344,7.344,0,0,1,14.993,22.689Z" transform="translate(-6 -13.383)" fill="#00f7ef"/>
            <path id="Path_14" data-name="Path 14" d="M29.5,3.745H26.235V21.016a3.639,3.639,0,0,1-3.579,3.669A3.521,3.521,0,0,1,19.3,22.269a3.645,3.645,0,0,0,2.058.671,3.6,3.6,0,0,0,3.579-3.624V2h4.34v.089a2.178,2.178,0,0,0,.045.537A4.857,4.857,0,0,0,29.5,3.745Z" transform="translate(-13.349 -2)" fill="#00f7ef"/>
          </g>
        </g>
        <path id="Path_15" data-name="Path 15" d="M49.961,13.566h0v1.611A6.127,6.127,0,0,1,45.8,12,5.812,5.812,0,0,0,49.961,13.566Z" transform="translate(-27.992 -7.526)" fill="#00f7ef"/>
      </g>
    </g>
  </g>
</svg>
