<?xml version="1.0" encoding="utf-8"?>
<!-- Generator: Adobe Illustrator 24.1.2, SVG Export Plug-In . SVG Version: 6.00 Build 0)  -->
<svg version="1.1" id="Layer_1" xmlns="http://www.w3.org/2000/svg" xmlns:xlink="http://www.w3.org/1999/xlink" x="0px" y="0px"
	 width="36.1px" height="36.1px" viewBox="0 0 36.1 36.1" style="enable-background:new 0 0 36.1 36.1;" xml:space="preserve">
<style type="text/css">
	.st0{fill:#5FCCFF;}
	.st1{fill:#FFFFFF;}
</style>
<g>
	<g id="Vimeo_2_">
		<g id="Vimeo_1_">
			<circle id="BG" class="st0" cx="18" cy="18" r="18"/>
			<path id="Vimeo" class="st1" d="M27.1,14c-0.1,1.8-1.4,4.2-3.7,7.2c-2.5,3.2-4.5,4.7-6.2,4.7c-1,0-1.9-1-2.7-2.9
				c-0.5-1.8-1-3.6-1.5-5.3c-0.6-1.9-1.1-2.9-1.7-2.9c-0.1,0-0.6,0.3-1.5,0.9l-0.9-1.1c0.9-0.8,1.8-1.6,2.6-2.4c1.2-1,2-1.6,2.7-1.6
				c1.4-0.1,2.3,0.8,2.6,2.8c0.3,2.3,0.6,3.6,0.7,4.2c0.5,1.8,0.9,2.7,1.4,2.7c0.3,0,0.9-0.6,1.7-1.8c0.8-1.2,1.1-2.1,1.2-2.7
				c0.1-1-0.3-1.6-1.2-1.6c-0.5,0-0.9,0.1-1.4,0.3c0.9-2.9,2.6-4.3,5.1-4.2C26.3,10.4,27.2,11.6,27.1,14"/>
		</g>
	</g>
</g>
</svg>
