<svg fill="none" xmlns="http://www.w3.org/2000/svg" viewBox="0 0 24 24"><rect width="24" height="24" rx="12" fill="#131F60"/><path fill-rule="evenodd" clip-rule="evenodd" d="M11.8 6.6a3.7 3.7 0 0 1 5.3 5.3l-.5.6a.6.6 0 1 1-1-.9l.6-.5a2.5 2.5 0 1 0-3.5-3.6l-1 1.1c-1 1-1 2.6 0 3.6a.6.6 0 0 1-1 .8 3.7 3.7 0 0 1 0-5.2l1.1-1.2Z" fill="#fff"/><path fill-rule="evenodd" clip-rule="evenodd" d="M12.2 16.9a3.7 3.7 0 0 1-5.3-5.3l.5-.5a.6.6 0 1 1 .9.8l-.6.6a2.5 2.5 0 1 0 3.6 3.5l1-1c1-1 1-2.6 0-3.6a.6.6 0 1 1 1-.9 3.7 3.7 0 0 1 0 5.3l-1.1 1.1Z" fill="#fff"/></svg>