<svg width="36" height="36" viewBox="0 0 36 36" fill="none" xmlns="http://www.w3.org/2000/svg">
<g clip-path="url(#clip0_92_55)">
<circle cx="18" cy="18" r="18" fill="black"/>
<g clip-path="url(#clip1_92_55)">
<mask id="path-2-outside-1_92_55" maskUnits="userSpaceOnUse" x="7.88214" y="8" width="20" height="20" fill="black">
<rect fill="white" x="7.88214" y="8" width="20" height="20"/>
<path d="M19.7366 16.7289L26.5264 9H24.918L19.02 15.7095L14.3127 9H8.88214L16.002 19.147L8.88214 27.2509H10.4905L16.715 20.1639L21.6873 27.2509H27.1179M11.071 10.1878H13.542L24.9168 26.1215H22.4453"/>
</mask>
<path d="M19.7366 16.7289L26.5264 9H24.918L19.02 15.7095L14.3127 9H8.88214L16.002 19.147L8.88214 27.2509H10.4905L16.715 20.1639L21.6873 27.2509H27.1179M11.071 10.1878H13.542L24.9168 26.1215H22.4453" fill="white"/>
<path d="M26.5264 9L26.7142 9.165L27.0788 8.75H26.5264V9ZM24.918 9V8.75H24.8049L24.7303 8.83494L24.918 9ZM19.02 15.7095L18.8153 15.8531L18.9979 16.1133L19.2078 15.8746L19.02 15.7095ZM14.3127 9L14.5174 8.85642L14.4427 8.75H14.3127V9ZM8.88214 9V8.75H8.40131L8.67749 9.1436L8.88214 9ZM16.002 19.147L16.1898 19.312L16.3195 19.1643L16.2066 19.0034L16.002 19.147ZM8.88214 27.2509L8.69432 27.0859L8.32972 27.5009H8.88214V27.2509ZM10.4905 27.2509V27.5009H10.6037L10.6784 27.4159L10.4905 27.2509ZM16.715 20.1639L16.9196 20.0203L16.737 19.76L16.5272 19.9989L16.715 20.1639ZM21.6873 27.2509L21.4826 27.3945L21.5573 27.5009H21.6873V27.2509ZM13.542 10.1878L13.7454 10.0425L13.6707 9.93775H13.542V10.1878ZM24.9168 26.1215V26.3715H25.4025L25.1203 25.9763L24.9168 26.1215ZM19.9245 16.8939L26.7142 9.165L26.3386 8.835L19.5488 16.5639L19.9245 16.8939ZM26.5264 8.75H24.918V9.25H26.5264V8.75ZM24.7303 8.83494L18.8322 15.5445L19.2078 15.8746L25.1058 9.16506L24.7303 8.83494ZM19.2246 15.566L14.5174 8.85642L14.1081 9.14358L18.8153 15.8531L19.2246 15.566ZM14.3127 8.75H8.88214V9.25H14.3127V8.75ZM8.67749 9.1436L15.7973 19.2906L16.2066 19.0034L9.08678 8.8564L8.67749 9.1436ZM15.8142 18.982L8.69432 27.0859L9.06995 27.4159L16.1898 19.312L15.8142 18.982ZM8.88214 27.5009H10.4905V27.0009H8.88214V27.5009ZM10.6784 27.4159L16.9028 20.3289L16.5272 19.9989L10.3027 27.0859L10.6784 27.4159ZM16.5103 20.3075L21.4826 27.3945L21.8919 27.1073L16.9196 20.0203L16.5103 20.3075ZM21.6873 27.5009H27.1179V27.0009H21.6873V27.5009ZM11.071 10.4378H13.542V9.93775H11.071V10.4378ZM13.3385 10.333L24.7133 26.2668L25.1203 25.9763L13.7454 10.0425L13.3385 10.333ZM24.9168 25.8715H22.4453V26.3715H24.9168V25.8715Z" fill="white" mask="url(#path-2-outside-1_92_55)"/>
</g>
</g>
<defs>
<clipPath id="clip0_92_55">
<rect width="36" height="36" fill="white"/>
</clipPath>
<clipPath id="clip1_92_55">
<rect width="18.2357" height="18.251" fill="white" transform="translate(8.88214 9)"/>
</clipPath>
</defs>
</svg>
