<svg id="iconfinder_2018_social_media_popular_app_logo_youtube_3225180" xmlns="http://www.w3.org/2000/svg" width="36" height="36" viewBox="0 0 36 36">
  <path id="Path_7" data-name="Path 7" d="M18,36h0A18,18,0,0,1,0,18H0A18,18,0,0,1,18,0h0A18,18,0,0,1,36,18h0A18,18,0,0,1,18,36Z" fill="red"/>
  <path id="Path_8" data-name="Path 8" d="M191.669,268.573a2.982,2.982,0,0,0-2.137-2.081c-1.886-.493-9.443-.493-9.443-.493s-7.561,0-9.443.493a2.982,2.982,0,0,0-2.137,2.081,31.843,31.843,0,0,0,0,11.329,2.982,2.982,0,0,0,2.137,2.081c1.886.493,9.443.493,9.443.493s7.561,0,9.443-.493a2.982,2.982,0,0,0,2.137-2.081,32.07,32.07,0,0,0,0-11.329Zm-14.055,9.139v-6.949l6.316,3.475Z" transform="translate(-162.086 -256.238)" fill="#fff"/>
</svg>
