<?xml version="1.0" encoding="UTF-8"?>
<svg id="Layer_1" xmlns="http://www.w3.org/2000/svg" version="1.1" viewBox="0 0 77.7 77.7">
  <!-- Generator: Adobe Illustrator 29.3.1, SVG Export Plug-In . SVG Version: 2.1.0 Build 151)  -->
  <path d="M38.9,0C17.4,0,0,17.4,0,38.9s17.4,38.9,38.9,38.9,38.9-17.4,38.9-38.9S60.3,0,38.9,0ZM34.8,60.8c-4.9,4.9-13,4.9-17.9,0-4.9-4.9-4.9-13,0-17.9,0,0,10.8-10.8,11-11,3.7-3.3,8.8-4.1,13.2-2.3,1.5.6,3,1.5,4.3,2.8l-5.4,5.4c-2-2-5.1-2-7.1,0l-10.5,10.5c-2,2-2,5.1,0,7.1s5.1,2,7.1,0l4.8-4.8c4.1,1.7,5.2,1.8,10.1.7,0,0-9.5,9.6-9.5,9.6ZM60,35.7l-4,4-6.5,6.5c-.3.3-.7.7-1,1-3.6,2.9-8.5,3.5-12.6,1.8-1.5-.6-3-1.5-4.3-2.8l5.4-5.4c2,2,5.1,2,7.1,0l4.2-4.2,6.3-6.3c2-2,2-5.1,0-7.1-2-2-5.1-2-7.1,0l-5,5c-3.2-1.5-6.8-1.7-10.1-.8l9.7-9.7c4.9-4.9,13-4.9,18,0,5,5,5,13,0,18h0Z"/>
</svg>