<?xml version="1.0" encoding="UTF-8"?>
<svg id="Layer_1" xmlns="http://www.w3.org/2000/svg" version="1.1" viewBox="0 0 243.3 77.7">
  <!-- Generator: Adobe Illustrator 29.3.1, SVG Export Plug-In . SVG Version: 2.1.0 Build 151)  -->
  <defs>
    <style>
      .st0 {
        fill: #3b82f6;
      }
    </style>
  </defs>
  <path class="st0" d="M38.9,0C17.4,0,0,17.4,0,38.9s17.4,38.9,38.9,38.9,38.9-17.4,38.9-38.9S60.3,0,38.9,0ZM34.8,60.8c-4.9,4.9-13,4.9-17.9,0-4.9-4.9-4.9-13,0-17.9,0,0,10.8-10.8,11-11,3.7-3.3,8.8-4.1,13.2-2.3,1.5.6,3,1.5,4.3,2.8l-5.4,5.4c-2-2-5.1-2-7.1,0l-10.5,10.5c-2,2-2,5.1,0,7.1s5.1,2,7.1,0l4.8-4.8c4.1,1.7,5.2,1.8,10.1.7,0,0-9.5,9.6-9.5,9.6ZM60,35.7l-4,4-6.5,6.5c-.3.3-.7.7-1,1-3.6,2.9-8.5,3.5-12.6,1.8-1.5-.6-3-1.5-4.3-2.8l5.4-5.4c2,2,5.1,2,7.1,0l4.2-4.2,6.3-6.3c2-2,2-5.1,0-7.1-2-2-5.1-2-7.1,0l-5,5c-3.2-1.5-6.8-1.7-10.1-.8l9.7-9.7c4.9-4.9,13-4.9,18,0,5,5,5,13,0,18h0Z"/>
  <g>
    <path class="st0" d="M111.3,56.8c-2.7,0-5.1-.5-7.3-1.4-2.2-1-3.9-2.3-5.3-4.1-1.4-1.8-2.3-3.9-2.6-6.3l7.2-1.1c.5,2.1,1.5,3.7,3.1,4.8,1.6,1.1,3.4,1.7,5.4,1.7s2.2-.2,3.3-.5c1.1-.3,1.9-.9,2.6-1.6s1-1.5,1-2.5,0-.7-.2-1.1-.3-.7-.5-1c-.2-.3-.6-.6-1.1-.9s-1-.5-1.8-.7l-9.4-2.8c-.7-.2-1.5-.5-2.5-.9-.9-.4-1.8-.9-2.7-1.6s-1.6-1.6-2.2-2.7-.9-2.6-.9-4.3.6-4.5,1.8-6.1c1.2-1.6,2.9-2.8,4.9-3.6,2.1-.8,4.3-1.2,6.8-1.2,2.5,0,4.7.5,6.7,1.3s3.6,2,4.9,3.6,2.3,3.5,2.9,5.8l-7.4,1.3c-.3-1.2-.8-2.2-1.5-3-.7-.8-1.6-1.4-2.6-1.8s-2-.6-3.1-.7c-1.1,0-2.1.1-3,.4-.9.3-1.7.8-2.3,1.4s-.9,1.4-.9,2.2.2,1.4.7,1.9c.5.5,1.1.9,1.8,1.2.7.3,1.5.5,2.3.8l6.3,1.7c.9.2,2,.6,3.1,1,1.1.4,2.2,1,3.3,1.7s1.9,1.7,2.6,2.9c.7,1.2,1,2.7,1,4.5s-.4,3.7-1.2,5.1-1.9,2.7-3.3,3.6c-1.4,1-2.9,1.7-4.7,2.1s-3.5.7-5.4.7h0Z"/>
    <path class="st0" d="M143.7,56.8c-2.7,0-5.1-.6-7.2-1.8s-3.7-2.9-4.8-5.1c-1.1-2.2-1.7-4.6-1.7-7.4s.6-5.3,1.8-7.5c1.2-2.2,2.8-3.8,4.9-5s4.4-1.8,7.1-1.8,5.1.6,7.2,1.8c2.1,1.2,3.7,2.9,4.9,5.1s1.7,4.6,1.7,7.4-.6,5.3-1.8,7.5-2.8,3.8-4.9,5.1-4.5,1.8-7.2,1.8h0ZM143.7,50.4c2.2,0,3.8-.7,4.9-2.2,1.1-1.5,1.6-3.4,1.6-5.7s-.6-4.3-1.6-5.8c-1.1-1.4-2.7-2.2-4.9-2.2s-2.7.3-3.7,1c-1,.7-1.7,1.6-2.1,2.8s-.7,2.6-.7,4.2c0,2.4.6,4.4,1.6,5.8s2.7,2.2,4.9,2.2h0Z"/>
    <path class="st0" d="M175,56.8c-2.8,0-5.2-.6-7.2-1.9s-3.6-3-4.6-5.1-1.6-4.6-1.6-7.3.6-5.2,1.7-7.4,2.7-3.9,4.7-5.1c2-1.2,4.4-1.9,7.2-1.9s5.9.8,8.1,2.4c2.2,1.6,3.6,3.8,4.2,6.6l-6.9,1.8c-.4-1.4-1.1-2.5-2.1-3.3s-2.1-1.2-3.4-1.2-2.6.3-3.6,1-1.6,1.7-2,2.8c-.4,1.2-.6,2.6-.6,4.1,0,2.4.5,4.3,1.6,5.8s2.6,2.2,4.7,2.2,2.7-.3,3.5-1.1c.8-.7,1.4-1.7,1.8-3l7,1.5c-.8,2.9-2.2,5.1-4.4,6.7-2.1,1.6-4.8,2.3-8,2.3h0Z"/>
    <path class="st0" d="M192.1,25v-6h6.9v6h-6.9ZM192.1,56v-27.2h6.9v27.2h-6.9Z"/>
    <path class="st0" d="M229.2,36c-.1-1-.4-2-1-3-.9-1.8-2.4-3.1-4.2-3.8-1.9-.7-4-1.1-6.4-1.1s-5.9.7-7.8,2.1c-1.9,1.4-3.2,3.2-3.9,5.5l6.2,2c.4-1.2,1.2-2.1,2.3-2.6s2.1-.7,3.1-.7c1.8,0,3.1.4,3.9,1.1.6.6,1,1.5,1.1,2.6-1.2.2-2.2.3-3.3.5-1.8.3-3.3.5-4.7.8-1.4.3-2.6.6-3.6,1-1.5.5-2.6,1.2-3.5,2-.9.8-1.5,1.7-1.9,2.8-.4,1-.6,2.2-.6,3.5s.4,2.9,1.1,4.2c.7,1.2,1.7,2.2,3.1,3,1.4.8,3,1.1,4.9,1.1s4.3-.4,5.8-1.2c1.2-.6,2.4-1.6,3.4-2.9v3.3h6v-16.6c0-1.2,0-2.4-.1-3.4h0ZM222.5,45.2c0,1-.3,1.8-.6,2.6-.2.4-.5.9-1.1,1.4s-1.2,1.1-2.1,1.5c-.9.4-1.9.7-3.2.7s-1.5-.1-2-.3c-.6-.2-1-.6-1.3-1-.3-.4-.5-1-.5-1.6s.1-.9.3-1.2.5-.7.9-1,.9-.6,1.6-.9c.6-.2,1.3-.4,2-.6.8-.2,1.8-.4,3.1-.6.8-.2,1.8-.3,2.9-.5,0,.5,0,1,0,1.6h0Z"/>
    <path class="st0" d="M236.4,56V19h6.9v37h-6.9Z"/>
  </g>
</svg>