<?xml version="1.0" encoding="UTF-8"?>
<svg id="Layer_1" data-name="Layer 1" xmlns="http://www.w3.org/2000/svg" viewBox="0 0 243.26 77.72">
  <defs>
    <style>
      .cls-1 {
        fill: #fff;
      }
    </style>
  </defs>
  <path class="cls-1" d="M38.86,0C17.4,0,0,17.4,0,38.86s17.4,38.86,38.86,38.86,38.86-17.39,38.86-38.86S60.32,0,38.86,0ZM34.78,60.85c-4.93,4.93-13.01,4.93-17.94,0-4.94-4.93-4.94-13.01,0-17.94,0,0,10.81-10.81,10.98-10.95,3.67-3.29,8.81-4.09,13.19-2.34,1.54.59,3.01,1.54,4.26,2.79l-5.42,5.43c-1.96-1.96-5.14-1.96-7.1,0l-10.49,10.49c-1.96,1.96-1.96,5.14,0,7.1,1.96,1.96,5.14,1.96,7.1,0l4.83-4.83c4.12,1.65,5.24,1.79,10.07.67l-9.48,9.58ZM59.96,35.67l-3.95,3.95-6.54,6.54c-.31.35-.7.67-1.05.95-3.64,2.86-8.46,3.49-12.63,1.85-1.53-.6-3-1.54-4.26-2.8l5.42-5.42c1.96,1.96,5.14,1.96,7.1,0l4.16-4.16,6.33-6.33c1.96-1.96,1.96-5.15,0-7.1-1.96-1.96-5.14-1.96-7.1,0l-5.03,5.03c-3.15-1.47-6.75-1.71-10.08-.77l9.69-9.69c4.93-4.93,13.01-4.93,17.95,0,4.96,4.97,4.96,13.02,0,17.95Z"/>
  <g>
    <path class="cls-1" d="M111.32,56.76c-2.69,0-5.11-.47-7.27-1.42-2.16-.95-3.93-2.31-5.31-4.08-1.39-1.77-2.26-3.88-2.63-6.33l7.15-1.06c.5,2.08,1.54,3.69,3.12,4.81,1.58,1.13,3.38,1.69,5.39,1.69,1.12,0,2.22-.18,3.27-.53,1.06-.35,1.93-.87,2.61-1.56s1.02-1.54,1.02-2.54c0-.37-.05-.73-.16-1.07-.11-.34-.29-.67-.54-.97-.25-.3-.61-.59-1.07-.86-.46-.27-1.04-.51-1.75-.73l-9.42-2.77c-.71-.2-1.52-.49-2.46-.86-.93-.37-1.83-.9-2.71-1.59s-1.6-1.6-2.18-2.73-.87-2.56-.87-4.29c0-2.43.61-4.46,1.84-6.07,1.23-1.61,2.86-2.81,4.91-3.6,2.05-.79,4.31-1.18,6.8-1.16,2.5.03,4.73.46,6.7,1.28s3.61,2.02,4.94,3.59c1.33,1.57,2.28,3.49,2.87,5.76l-7.4,1.26c-.27-1.17-.77-2.17-1.49-2.97-.72-.81-1.58-1.42-2.58-1.84-1-.42-2.04-.65-3.14-.68-1.07-.03-2.09.11-3.04.44-.95.33-1.72.8-2.32,1.42-.6.62-.89,1.36-.89,2.22,0,.79.24,1.43.73,1.93.49.5,1.1.89,1.84,1.2.74.3,1.5.55,2.27.76l6.3,1.71c.94.25,1.98.58,3.12,1,1.14.41,2.24.98,3.29,1.71s1.91,1.69,2.6,2.88c.68,1.19,1.02,2.7,1.02,4.53,0,1.95-.41,3.65-1.22,5.1s-1.91,2.65-3.29,3.6c-1.38.95-2.93,1.66-4.67,2.13-1.74.47-3.53.71-5.38.71Z"/>
    <path class="cls-1" d="M143.66,56.76c-2.74,0-5.14-.61-7.2-1.84s-3.67-2.92-4.82-5.08c-1.15-2.16-1.73-4.64-1.73-7.44s.59-5.34,1.76-7.49c1.17-2.16,2.8-3.84,4.86-5.05s4.44-1.81,7.13-1.81,5.14.61,7.22,1.84c2.07,1.23,3.69,2.92,4.85,5.08,1.16,2.16,1.74,4.64,1.74,7.44s-.58,5.31-1.75,7.47c-1.17,2.16-2.79,3.84-4.86,5.06-2.07,1.22-4.47,1.83-7.19,1.83ZM143.66,50.36c2.2,0,3.84-.74,4.92-2.23,1.08-1.49,1.62-3.4,1.62-5.73s-.55-4.35-1.65-5.79c-1.1-1.44-2.73-2.17-4.9-2.17-1.5,0-2.72.34-3.68,1.01-.96.67-1.67,1.6-2.13,2.8s-.69,2.58-.69,4.16c0,2.43.55,4.37,1.65,5.81s2.72,2.15,4.85,2.15Z"/>
    <path class="cls-1" d="M175,56.76c-2.82,0-5.24-.63-7.25-1.89-2.01-1.26-3.56-2.97-4.63-5.14s-1.61-4.61-1.61-7.33.56-5.21,1.68-7.38c1.12-2.17,2.69-3.87,4.72-5.11,2.03-1.24,4.43-1.86,7.2-1.86,3.21,0,5.9.81,8.07,2.43,2.17,1.62,3.56,3.83,4.17,6.64l-6.85,1.81c-.4-1.41-1.1-2.51-2.1-3.3-1-.79-2.13-1.18-3.39-1.18-1.44,0-2.63.35-3.55,1.05-.92.7-1.6,1.65-2.04,2.85-.44,1.2-.65,2.56-.65,4.07,0,2.37.52,4.29,1.57,5.76,1.05,1.47,2.61,2.2,4.67,2.2,1.54,0,2.72-.35,3.53-1.06.81-.71,1.41-1.71,1.81-3.02l7,1.46c-.77,2.89-2.23,5.11-4.38,6.67-2.15,1.56-4.8,2.34-7.96,2.34Z"/>
    <path class="cls-1" d="M192.13,25.02v-6.04h6.85v6.04h-6.85ZM192.13,56v-27.2h6.85v27.2h-6.85Z"/>
    <path class="cls-1" d="M229.2,36c-.1-1.01-.42-2.01-.96-3.02-.95-1.82-2.36-3.09-4.23-3.83-1.86-.74-3.99-1.11-6.39-1.11-3.28,0-5.87.71-7.76,2.12-1.9,1.41-3.19,3.24-3.88,5.49l6.19,1.96c.44-1.24,1.21-2.1,2.3-2.59,1.09-.49,2.14-.73,3.15-.73,1.81,0,3.1.38,3.87,1.13.61.6.98,1.45,1.1,2.57-1.16.17-2.25.34-3.29.49-1.76.26-3.34.53-4.73.82-1.4.29-2.6.61-3.6.98-1.47.54-2.63,1.21-3.49,2-.87.8-1.49,1.72-1.88,2.76-.39,1.04-.58,2.19-.58,3.45,0,1.51.35,2.9,1.05,4.15.69,1.25,1.72,2.25,3.07,2.99,1.35.75,3,1.13,4.95,1.13,2.35,0,4.29-.41,5.83-1.23,1.21-.64,2.36-1.59,3.44-2.87v3.34h5.99v-16.62c0-1.25-.05-2.37-.15-3.38ZM222.46,45.16c-.05.98-.26,1.84-.61,2.58-.19.38-.54.86-1.05,1.43s-1.2,1.08-2.06,1.53c-.87.44-1.93.66-3.19.66-.79,0-1.47-.11-2.04-.35-.57-.23-1.01-.57-1.32-1.02-.31-.44-.47-.98-.47-1.6,0-.45.1-.86.29-1.23s.5-.71.91-1.02c.41-.31.95-.6,1.62-.87.59-.22,1.27-.42,2.04-.61.78-.18,1.79-.39,3.05-.61.81-.15,1.77-.31,2.9-.51-.01.48-.03,1.02-.07,1.62Z"/>
    <path class="cls-1" d="M236.41,56V18.97h6.85v37.03h-6.85Z"/>
  </g>
</svg>