<svg fill="none" viewBox="0 0 35 15" height="15" width="35" xmlns="http://www.w3.org/2000/svg" class="px-1">
<path xmlns="http://www.w3.org/2000/svg" fill-rule="evenodd" clip-rule="evenodd" d="M35.001 7.52505C35.001 5.03616 33.7954 3.07227 31.4912 3.07227C29.1773 3.07227 27.7773 5.03616 27.7773 7.5056C27.7773 10.432 29.4301 11.9098 31.8023 11.9098C32.9593 11.9098 33.8343 11.6473 34.4954 11.2778V9.33338C33.8343 9.66394 33.076 9.86811 32.1135 9.86811C31.1704 9.86811 30.3343 9.53755 30.2273 8.39033H34.9815C34.9815 8.26394 35.001 7.75838 35.001 7.52505ZM30.1982 6.60144C30.1982 5.50282 30.869 5.04588 31.4815 5.04588C32.0746 5.04588 32.7065 5.50282 32.7065 6.60144H30.1982Z" fill="#5E7CA9"></path>
<path xmlns="http://www.w3.org/2000/svg" fill-rule="evenodd" clip-rule="evenodd" d="M24.0224 3.07227C23.0696 3.07227 22.4571 3.51949 22.1168 3.8306L21.9905 3.22782H19.8516V14.5639L22.2821 14.0487L22.2918 11.2973C22.6418 11.5501 23.1571 11.9098 24.0127 11.9098C25.753 11.9098 27.3377 10.5098 27.3377 7.42783C27.328 4.60838 25.7238 3.07227 24.0224 3.07227ZM23.4391 9.77089C22.8655 9.77089 22.5252 9.56672 22.2918 9.31394L22.2821 5.70699C22.5349 5.42505 22.8849 5.2306 23.4391 5.2306C24.3238 5.2306 24.9363 6.22227 24.9363 7.49588C24.9363 8.79866 24.3335 9.77089 23.4391 9.77089Z" fill="#5E7CA9"></path>
<path xmlns="http://www.w3.org/2000/svg" fill-rule="evenodd" clip-rule="evenodd" d="M16.5078 2.49861L18.9481 1.97361V0L16.5078 0.515278V2.49861Z" fill="#5E7CA9"></path>
<path xmlns="http://www.w3.org/2000/svg" d="M18.9481 3.2373H16.5078V11.7443H18.9481V3.2373Z" fill="#5E7CA9"></path>
<path xmlns="http://www.w3.org/2000/svg" fill-rule="evenodd" clip-rule="evenodd" d="M13.8923 3.95715L13.7367 3.2377H11.6367V11.7447H14.0673V5.97937C14.6409 5.23076 15.6131 5.36687 15.9145 5.47382V3.2377C15.6034 3.12103 14.4659 2.90715 13.8923 3.95715Z" fill="#5E7CA9"></path>
<path xmlns="http://www.w3.org/2000/svg" fill-rule="evenodd" clip-rule="evenodd" d="M9.03038 1.12793L6.65816 1.63349L6.64844 9.421C6.64844 10.8599 7.72761 11.9196 9.1665 11.9196C9.96372 11.9196 10.5471 11.7738 10.8679 11.5988V9.62516C10.5568 9.75155 9.02066 10.1988 9.02066 8.75988V5.30849H10.8679V3.23766H9.02066L9.03038 1.12793Z" fill="#5E7CA9"></path>
<path xmlns="http://www.w3.org/2000/svg" fill-rule="evenodd" clip-rule="evenodd" d="M2.45973 5.70699C2.45973 5.32782 2.77084 5.18199 3.28612 5.18199C4.02501 5.18199 4.95834 5.4056 5.69723 5.80421V3.51949C4.89029 3.19865 4.09306 3.07227 3.28612 3.07227C1.3125 3.07227 0 4.10282 0 5.82366C0 8.507 3.69445 8.07922 3.69445 9.23616C3.69445 9.68339 3.30556 9.82922 2.76112 9.82922C1.95417 9.82922 0.923612 9.49866 0.106944 9.05144V11.3653C1.01111 11.7542 1.925 11.9195 2.76112 11.9195C4.78334 11.9195 6.17362 10.9181 6.17362 9.17783C6.1639 6.2806 2.45973 6.79588 2.45973 5.70699Z" fill="#5E7CA9"></path>
</svg>